<?xml version="1.0" encoding="utf-8"?>
<!-- Generator: Adobe Illustrator 26.4.1, SVG Export Plug-In . SVG Version: 6.00 Build 0)  -->
<svg version="1.1" id="Слой_1" xmlns="http://www.w3.org/2000/svg" xmlns:xlink="http://www.w3.org/1999/xlink" x="0px" y="0px"
	 viewBox="0 0 200 200" style="enable-background:new 0 0 200 200;" xml:space="preserve">
<style type="text/css">
	.st0{fill-rule:evenodd;clip-rule:evenodd;fill:#141414;}
	.st1{fill-rule:evenodd;clip-rule:evenodd;fill:#2D5BA6;}
</style>
<path class="st0" d="M93.98,86.7c0,3.01,17.03,29.09,17.3,29.28V86.26c1.37,0.98,14.06,22.46,15.98,25.72l15.96,25.74l7.87-0.02
	l31.51-52.39c0.09,7.84-0.65,55.87,0.27,62.58H200V52.11h-15.08l-37.33,63.34c-2.09-1.2-33.7-55.97-38.52-63.34H93.98V86.7z"/>
<path class="st1" d="M58.06,53.04L6.69,136.03c-1.27,2.05-2.45,3.98-3.73,6.03c-1.34,2.15-2.68,3.54-2.96,5.83h115.18
	C96.14,116.28,77.1,84.66,58.06,53.04z M57.61,87.59l26.57,43.5l-53.63-0.02c7.57-11.67,15.91-25.94,23.6-38.05l2.83-4.71
	C57.45,87.7,57.35,87.89,57.61,87.59z"/>
</svg>
