<?xml version="1.0" standalone="no"?>
<!DOCTYPE svg PUBLIC "-//W3C//DTD SVG 20010904//EN"
 "http://www.w3.org/TR/2001/REC-SVG-20010904/DTD/svg10.dtd">
<svg version="1.0" xmlns="http://www.w3.org/2000/svg"
 width="453.000000pt" height="453.000000pt" viewBox="0 0 453.000000 453.000000"
 preserveAspectRatio="xMidYMid meet">
<metadata>
Created by potrace 1.14, written by Peter Selinger 2001-2017
</metadata>
<g transform="translate(0.000000,453.000000) scale(0.100000,-0.100000)"
fill="#000000" stroke="none">
<path d="M2124 2953 l2 -408 189 -312 190 -312 5 339 5 339 135 -220 c74 -121
142 -233 150 -247 14 -24 208 -343 364 -597 l62 -100 91 -1 91 -1 24 40 c36
63 65 111 183 306 61 100 117 194 126 209 9 15 92 153 184 307 93 154 174 291
182 305 7 14 13 23 14 20 1 -3 3 -311 4 -685 2 -374 4 -696 4 -716 l1 -36 190
1 190 1 0 1087 0 1088 -169 0 -168 0 -69 -117 c-63 -110 -149 -255 -264 -448
-26 -44 -57 -96 -67 -115 -11 -19 -113 -192 -227 -384 -113 -191 -206 -352
-206 -357 0 -45 -88 89 -346 528 -11 17 -48 80 -84 139 -36 60 -69 116 -75
126 -5 10 -57 95 -115 190 -58 95 -107 177 -110 183 -3 5 -38 65 -79 133 l-74
122 -167 0 -167 0 1 -407z"/>
<path d="M1275 3283 c-15 -26 -42 -70 -60 -98 -18 -27 -105 -169 -195 -315
-90 -146 -191 -310 -225 -365 -139 -225 -276 -447 -349 -565 -43 -69 -82 -132
-87 -140 -5 -8 -88 -143 -184 -299 -97 -157 -174 -292 -173 -300 3 -14 134
-16 1305 -17 1197 -1 1302 0 1294 15 -12 21 -424 704 -626 1036 -165 271 -417
689 -562 930 -46 77 -90 146 -97 153 -11 11 -18 5 -41 -35z m151 -918 c44 -71
83 -137 87 -145 4 -8 92 -154 196 -325 104 -170 188 -311 186 -313 -5 -5
-1195 -5 -1200 0 -3 2 517 852 592 967 l15 23 22 -38 c13 -22 59 -97 102 -169z"/>
</g>
</svg>
